<svg xmlns="http://www.w3.org/2000/svg" width="19" height="19" viewBox="0 0 19 19" fill="none">
    <g clip-path="url(#clip0_420_116)">
      <path fill-rule="evenodd" clip-rule="evenodd" d="M9.47169 0C4.23409 0 0 4.35417 0 9.74086C0 14.0467 2.71293 17.6916 6.47648 18.9816C6.94702 19.0786 7.11938 18.772 7.11938 18.5141C7.11938 18.2883 7.10387 17.5142 7.10387 16.7077C4.46907 17.2884 3.9204 15.5466 3.9204 15.5466C3.49697 14.4176 2.86958 14.1275 2.86958 14.1275C2.00721 13.5308 2.9324 13.5308 2.9324 13.5308C3.88899 13.5953 4.39094 14.5306 4.39094 14.5306C5.2376 16.0142 6.60192 15.595 7.15079 15.337C7.22911 14.708 7.48018 14.2726 7.74677 14.0307C5.64533 13.8049 3.43435 12.9663 3.43435 9.2247C3.43435 8.1603 3.81047 7.28947 4.40645 6.6122C4.31242 6.37034 3.98302 5.37027 4.50067 4.03176C4.50067 4.03176 5.30042 3.77368 7.10367 5.03164C7.87571 4.81841 8.6719 4.70994 9.47169 4.70903C10.2714 4.70903 11.0867 4.82204 11.8395 5.03164C13.643 3.77368 14.4427 4.03176 14.4427 4.03176C14.9604 5.37027 14.6308 6.37034 14.5367 6.6122C15.1484 7.28947 15.509 8.1603 15.509 9.2247C15.509 12.9663 13.2981 13.7887 11.1809 14.0307C11.526 14.3371 11.8238 14.9176 11.8238 15.8369C11.8238 17.1431 11.8083 18.1915 11.8083 18.5139C11.8083 18.772 11.9809 19.0786 12.4512 18.9818C16.2148 17.6914 18.9277 14.0467 18.9277 9.74086C18.9432 4.35417 14.6936 0 9.47169 0Z" fill="#24292F"/>
    </g>
    <defs>
      <clipPath id="clip0_420_116">
        <rect width="19" height="19" fill="white"/>
      </clipPath>
    </defs>
</svg>