<svg xmlns="http://www.w3.org/2000/svg" width="19" height="19" viewBox="0 0 19 19" fill="none">
    <g clip-path="url(#clip0_420_121)">
      <path d="M5.5655 0.0664407C4.5547 0.114131 3.86443 0.275441 3.26099 0.512561C2.63646 0.755951 2.10712 1.08256 1.58044 1.61114C1.05376 2.13972 0.729425 2.66944 0.487745 3.29492C0.253855 3.89969 0.0953954 4.59053 0.0507454 5.6019C0.00609541 6.61327 -0.0037846 6.93836 0.0011554 9.51818C0.0060954 12.098 0.0174954 12.4214 0.0665154 13.4348C0.114775 14.4455 0.275515 15.1355 0.512635 15.7392C0.756405 16.3637 1.08264 16.8928 1.61141 17.4197C2.14018 17.9466 2.66952 18.2702 3.29652 18.5122C3.90072 18.7457 4.59175 18.9049 5.60293 18.9492C6.61411 18.9935 6.93958 19.0037 9.51864 18.9988C12.0977 18.9939 12.4224 18.9825 13.4357 18.9344C14.4489 18.8863 15.1354 18.7244 15.7392 18.4885C16.3638 18.2441 16.8933 17.9185 17.4198 17.3895C17.9463 16.8605 18.2704 16.3304 18.5119 15.7046C18.746 15.1004 18.905 14.4094 18.9489 13.3989C18.9932 12.3849 19.0036 12.0611 18.9987 9.4817C18.9937 6.90226 18.9822 6.57888 18.9341 5.5658C18.886 4.55272 18.7251 3.86473 18.4882 3.26072C18.244 2.63619 17.9182 2.10742 17.3896 1.58017C16.861 1.05292 16.3305 0.728971 15.7048 0.488051C15.1003 0.254161 14.4096 0.0947507 13.3984 0.0510507C12.3873 0.00735073 12.0618 -0.00385927 9.48178 0.00108073C6.90177 0.00602073 6.57877 0.0170407 5.5655 0.0664407ZM5.67646 17.2402C4.75021 17.1999 4.24728 17.046 3.91212 16.9172C3.46828 16.7462 3.15212 16.5394 2.8181 16.2087C2.48408 15.8779 2.27888 15.5606 2.1056 15.1177C1.97545 14.7825 1.8187 14.2802 1.77538 13.3539C1.72826 12.3528 1.71838 12.0522 1.71287 9.5159C1.70736 6.97959 1.71705 6.67939 1.76094 5.6779C1.80046 4.75241 1.95531 4.24891 2.08394 3.91394C2.25494 3.46953 2.4609 3.15394 2.79245 2.82011C3.124 2.48628 3.44035 2.2807 3.88362 2.10742C4.2184 1.9767 4.72076 1.82128 5.64663 1.7772C6.6485 1.7297 6.9487 1.7202 9.48463 1.71469C12.0206 1.70918 12.3215 1.71868 13.3238 1.76276C14.2493 1.80304 14.7529 1.95637 15.0875 2.08576C15.5316 2.25676 15.8475 2.46215 16.1814 2.79427C16.5152 3.12639 16.721 3.4416 16.8942 3.88582C17.0252 4.21965 17.1806 4.72182 17.2243 5.64826C17.272 6.65013 17.2828 6.95052 17.2874 9.48626C17.2919 12.022 17.283 12.3232 17.2391 13.3243C17.1986 14.2505 17.0451 14.7536 16.9161 15.0892C16.7451 15.5328 16.5389 15.8492 16.2072 16.1828C15.8755 16.5165 15.5595 16.722 15.116 16.8953C14.7816 17.0258 14.2787 17.1816 13.3536 17.2257C12.3517 17.2728 12.0515 17.2827 9.51465 17.2882C6.97777 17.2937 6.67852 17.2835 5.67665 17.2402M13.421 4.42257C13.4214 4.64806 13.4887 4.86837 13.6143 5.05564C13.7398 5.24291 13.9182 5.38873 14.1266 5.47465C14.3351 5.56058 14.5644 5.58275 14.7854 5.53836C15.0065 5.49398 15.2095 5.38503 15.3686 5.22529C15.5278 5.06556 15.636 4.86221 15.6796 4.64098C15.7231 4.41974 15.7001 4.19055 15.6134 3.98239C15.5267 3.77424 15.3803 3.59646 15.1925 3.47156C15.0048 3.34665 14.7843 3.28022 14.5588 3.28067C14.2565 3.28128 13.9668 3.40191 13.7535 3.61605C13.5401 3.83018 13.4205 4.12029 13.421 4.42257ZM4.62215 9.50944C4.62747 12.2036 6.81551 14.3828 9.50914 14.3776C12.2028 14.3725 14.3834 12.1846 14.3783 9.49044C14.3731 6.79624 12.1845 4.61656 9.49052 4.62188C6.79651 4.6272 4.61702 6.81562 4.62215 9.50944ZM6.33329 9.50602C6.33205 8.8797 6.51656 8.26708 6.86349 7.74563C7.21043 7.22418 7.7042 6.81731 8.28237 6.57648C8.86053 6.33566 9.49713 6.27169 10.1117 6.39266C10.7262 6.51363 11.291 6.81411 11.7348 7.25611C12.1785 7.69811 12.4813 8.26177 12.6047 8.87581C12.7281 9.48985 12.6666 10.1267 12.4281 10.7058C12.1895 11.2849 11.7846 11.7803 11.2646 12.1293C10.7445 12.4783 10.1326 12.6652 9.50629 12.6665C9.09041 12.6674 8.67844 12.5863 8.29389 12.4279C7.90935 12.2696 7.55977 12.037 7.26512 11.7435C6.97047 11.45 6.73652 11.1014 6.57663 10.7175C6.41675 10.3335 6.33406 9.9219 6.33329 9.50602Z" fill="black"/>
    </g>
    <defs>
      <clipPath id="clip0_420_121">
        <rect width="19" height="19" fill="white"/>
      </clipPath>
    </defs>
</svg>