<svg width="574" height="612" viewBox="0 0 574 612" xmlns="http://www.w3.org/2000/svg">
<path class="string" d="M309 315.027C309 712.653 314.5 708.144 314.5 310.518C314.5 -105.163 320 -100.658 320 315.032" />
<path class="string" d="M320 315.027C320 712.653 325.5 708.144 325.5 310.518C325.5 -105.163 331 -100.658 331 315.032" />
<path d="M331 315.027C331 712.653 336.5 708.144 336.5 310.518C336.5 -105.163 342 -100.658 342 315.032" />
<path d="M342 315.027C342 712.653 347.5 708.144 347.5 310.518C347.5 -105.163 353 -100.658 353 315.032" />
<path d="M1 315.027C1 712.653 6.5 708.144 6.5 310.518C6.5 -105.163 12 -100.658 12 315.032" />
<path d="M12 315.027C12 712.653 17.5 708.144 17.5 310.518C17.5 -105.163 23 -100.658 23 315.032" />
<path d="M23 315.027C23 712.653 28.5 708.144 28.5 310.518C28.5 -105.163 34 -100.658 34 315.032" />
<path d="M34 315.027C34 712.653 39.5 708.144 39.5 310.518C39.5 -105.163 45 -100.658 45 315.032" />
<path d="M45 315.027C45 712.653 50.5 708.144 50.5 310.518C50.5 -105.163 56 -100.658 56 315.032" />
<path d="M56 315.027C56 712.653 61.5 708.144 61.5 310.518C61.5 -105.163 67 -100.658 67 315.032" />
<path d="M67 315.027C67 712.653 72.5 708.144 72.5 310.518C72.5 -105.163 78 -100.658 78 315.032" />
<path d="M78 315.027C78 712.653 83.5 708.144 83.5 310.518C83.5 -105.163 89 -100.658 89 315.032" />
<path d="M133 315.027C133 712.653 138.5 708.144 138.5 310.518C138.5 -105.163 144 -100.658 144 315.032" />
<path d="M144 315.027C144 712.653 149.5 708.144 149.5 310.518C149.5 -105.163 155 -100.658 155 315.032" />
<path d="M155 315.027C155 712.653 160.5 708.144 160.5 310.518C160.5 -105.163 166 -100.658 166 315.032" />
<path d="M166 315.027C166 712.653 171.5 708.144 171.5 310.518C171.5 -105.163 177 -100.658 177 315.032" />
<path d="M89 315.027C89 712.653 94.5 708.144 94.5 310.518C94.5 -105.163 100 -100.658 100 315.032" />
<path d="M100 315.027C100 712.653 105.5 708.144 105.5 310.518C105.5 -105.163 111 -100.658 111 315.032" />
<path d="M111 315.027C111 712.653 116.5 708.144 116.5 310.518C116.5 -105.163 122 -100.658 122 315.032" />
<path d="M122 315.027C122 712.653 127.5 708.144 127.5 310.518C127.5 -105.163 133 -100.658 133 315.032" />
<path d="M221 315.027C221 712.653 226.5 708.144 226.5 310.518C226.5 -105.163 232 -100.658 232 315.032" />
<path d="M232 315.027C232 712.653 237.5 708.144 237.5 310.518C237.5 -105.163 243 -100.658 243 315.032" />
<path d="M243 315.027C243 712.653 248.5 708.144 248.5 310.518C248.5 -105.163 254 -100.658 254 315.032" />
<path d="M254 315.027C254 712.653 259.5 708.144 259.5 310.518C259.5 -105.163 265 -100.658 265 315.032" />
<path d="M177 315.027C177 712.653 182.5 708.144 182.5 310.518C182.5 -105.163 188 -100.658 188 315.032" />
<path d="M188 315.027C188 712.653 193.5 708.144 193.5 310.518C193.5 -105.163 199 -100.658 199 315.032" />
<path d="M199 315.027C199 712.653 204.5 708.144 204.5 310.518C204.5 -105.163 210 -100.658 210 315.032" />
<path d="M210 315.027C210 712.653 215.5 708.144 215.5 310.518C215.5 -105.163 221 -100.658 221 315.032" />
<path d="M529 315.027C529 712.653 534.5 708.144 534.5 310.518C534.5 -105.163 540 -100.658 540 315.032" />
<path d="M540 315.027C540 712.653 545.5 708.144 545.5 310.518C545.5 -105.163 551 -100.658 551 315.032" />
<path d="M551 315.027C551 712.653 556.5 708.144 556.5 310.518C556.5 -105.163 562 -100.658 562 315.032" />
<path d="M562 315.027C562 712.653 567.5 708.144 567.5 310.518C567.5 -105.163 573 -100.658 573 315.032" />
<path d="M485 315.027C485 712.653 490.5 708.144 490.5 310.518C490.5 -105.163 496 -100.658 496 315.032" />
<path d="M496 315.027C496 712.653 501.5 708.144 501.5 310.518C501.5 -105.163 507 -100.658 507 315.032" />
<path d="M507 315.027C507 712.653 512.5 708.144 512.5 310.518C512.5 -105.163 518 -100.658 518 315.032" />
<path d="M518 315.027C518 712.653 523.5 708.144 523.5 310.518C523.5 -105.163 529 -100.658 529 315.032" />
<path d="M441 315.027C441 712.653 446.5 708.144 446.5 310.518C446.5 -105.163 452 -100.658 452 315.032" />
<path d="M452 315.027C452 712.653 457.5 708.144 457.5 310.518C457.5 -105.163 463 -100.658 463 315.032" />
<path d="M463 315.027C463 712.653 468.5 708.144 468.5 310.518C468.5 -105.163 474 -100.658 474 315.032" />
<path d="M474 315.027C474 712.653 479.5 708.144 479.5 310.518C479.5 -105.163 485 -100.658 485 315.032" />
<path d="M265 315.027C265 712.653 270.5 708.144 270.5 310.518C270.5 -105.163 276 -100.658 276 315.032" />
<path d="M276 315.027C276 712.653 281.5 708.144 281.5 310.518C281.5 -105.163 287 -100.658 287 315.032" />
<path d="M287 315.027C287 712.653 292.5 708.144 292.5 310.518C292.5 -105.163 298 -100.658 298 315.032" />
<path d="M298 315.027C298 712.653 303.5 708.144 303.5 310.518C303.5 -105.163 309 -100.658 309 315.032" />
<path d="M397 315.027C397 712.653 402.5 708.144 402.5 310.518C402.5 -105.163 408 -100.658 408 315.032" />
<path d="M408 315.027C408 712.653 413.5 708.144 413.5 310.518C413.5 -105.163 419 -100.658 419 315.032" />
<path d="M419 315.027C419 712.653 424.5 708.144 424.5 310.518C424.5 -105.163 430 -100.658 430 315.032" />
<path d="M430 315.027C430 712.653 435.5 708.144 435.5 310.518C435.5 -105.163 441 -100.658 441 315.032" />
<path d="M353 315.027C353 712.653 358.5 708.144 358.5 310.518C358.5 -105.163 364 -100.658 364 315.032" />
<path d="M364 315.027C364 712.653 369.5 708.144 369.5 310.518C369.5 -105.163 375 -100.658 375 315.032" />
<path d="M375 315.027C375 712.653 380.5 708.144 380.5 310.518C380.5 -105.163 386 -100.658 386 315.032" />
<path d="M386 315.027C386 712.653 391.5 708.144 391.5 310.518C391.5 -105.163 397 -100.658 397 315.032" />
</svg>
