<svg width="50" height="50" viewBox="0 0 50 50" fill="none" xmlns="http://www.w3.org/2000/svg">
<rect width="50" height="50" rx="8" fill="#7F7F7F" fill-opacity="0.64"/>
<path d="M12.775 29.11C12.269 29.11 11.8143 29.044 11.411 28.912C11.0076 28.78 10.6666 28.5893 10.388 28.34C10.1093 28.0907 9.90031 27.7973 9.76098 27.46C9.62164 27.1153 9.55931 26.7267 9.57398 26.294C9.59598 25.634 9.76464 25.0547 10.08 24.556C10.3953 24.0573 10.8316 23.6723 11.389 23.401C11.9463 23.1297 12.5916 22.994 13.325 22.994C13.9556 22.994 14.5093 23.093 14.986 23.291C15.4626 23.4817 15.833 23.753 16.097 24.105C16.3683 24.4497 16.504 24.853 16.504 25.315L14.678 25.304C14.6486 25.1133 14.5643 24.952 14.425 24.82C14.293 24.688 14.1243 24.589 13.919 24.523C13.721 24.4497 13.501 24.413 13.259 24.413C12.8923 24.413 12.5733 24.49 12.302 24.644C12.0306 24.7907 11.818 25.0033 11.664 25.282C11.51 25.5533 11.4256 25.8723 11.411 26.239C11.3963 26.5397 11.4513 26.8 11.576 27.02C11.7006 27.2327 11.8803 27.3977 12.115 27.515C12.3496 27.6323 12.621 27.691 12.929 27.691C13.1783 27.691 13.4056 27.658 13.611 27.592C13.8236 27.526 14.007 27.427 14.161 27.295C14.3223 27.163 14.436 27.0017 14.502 26.811L16.317 26.822C16.229 27.2987 16.0236 27.7093 15.701 28.054C15.3856 28.3913 14.9786 28.6517 14.48 28.835C13.9813 29.0183 13.413 29.11 12.775 29.11ZM16.698 29L18.359 20.981H20.196L18.535 29H16.698ZM23.2494 29.11C22.7287 29.11 22.263 29.044 21.8524 28.912C21.449 28.78 21.108 28.593 20.8294 28.351C20.5507 28.1017 20.3417 27.8047 20.2024 27.46C20.063 27.1153 20.0007 26.7267 20.0154 26.294C20.0374 25.6267 20.206 25.0473 20.5214 24.556C20.844 24.0573 21.284 23.6723 21.8414 23.401C22.3987 23.1297 23.044 22.994 23.7774 22.994C24.3054 22.994 24.771 23.06 25.1744 23.192C25.585 23.324 25.9297 23.5147 26.2084 23.764C26.4944 24.006 26.707 24.2993 26.8464 24.644C26.9857 24.9887 27.048 25.3737 27.0334 25.799C27.0114 26.4663 26.839 27.0493 26.5164 27.548C26.201 28.0393 25.761 28.4243 25.1964 28.703C24.639 28.9743 23.99 29.11 23.2494 29.11ZM23.3374 27.691C23.704 27.691 24.023 27.614 24.2944 27.46C24.5657 27.306 24.7784 27.0933 24.9324 26.822C25.0937 26.5507 25.178 26.2317 25.1854 25.865C25.2 25.6377 25.1707 25.436 25.0974 25.26C25.0314 25.0767 24.9324 24.9227 24.8004 24.798C24.6684 24.6733 24.507 24.578 24.3164 24.512C24.133 24.446 23.9277 24.413 23.7004 24.413C23.3337 24.413 23.0147 24.49 22.7434 24.644C22.4794 24.7907 22.2667 25.0033 22.1054 25.282C21.9514 25.5533 21.867 25.8723 21.8524 26.239C21.845 26.459 21.8744 26.6607 21.9404 26.844C22.0137 27.0273 22.1127 27.1813 22.2374 27.306C22.3694 27.4307 22.527 27.526 22.7104 27.592C22.901 27.658 23.11 27.691 23.3374 27.691ZM30.4798 29.11C29.4312 29.11 28.6282 28.9267 28.0708 28.56C27.5208 28.186 27.2642 27.6947 27.3008 27.086H29.1268C29.1122 27.372 29.2332 27.5883 29.4898 27.735C29.7465 27.8743 30.1168 27.944 30.6008 27.944C30.9455 27.944 31.2058 27.8927 31.3818 27.79C31.5578 27.68 31.6532 27.5187 31.6678 27.306C31.6752 27.1593 31.6275 27.0493 31.5248 26.976C31.4295 26.8953 31.2718 26.833 31.0518 26.789C30.8318 26.7377 30.5312 26.6827 30.1498 26.624C29.8272 26.5653 29.5265 26.4993 29.2478 26.426C28.9692 26.3453 28.7272 26.2427 28.5218 26.118C28.3165 25.986 28.1588 25.8247 28.0488 25.634C27.9388 25.4433 27.8875 25.2087 27.8948 24.93C27.9095 24.512 28.0378 24.16 28.2798 23.874C28.5292 23.5807 28.8665 23.3607 29.2918 23.214C29.7245 23.0673 30.2268 22.994 30.7988 22.994C31.4515 22.994 32.0052 23.0747 32.4598 23.236C32.9218 23.39 33.2665 23.61 33.4938 23.896C33.7285 24.182 33.8312 24.5193 33.8018 24.908H32.0308C32.0308 24.7393 31.9758 24.6 31.8658 24.49C31.7632 24.38 31.6165 24.2993 31.4258 24.248C31.2352 24.1893 31.0078 24.16 30.7438 24.16C30.4578 24.16 30.2268 24.2113 30.0508 24.314C29.8748 24.4167 29.7832 24.567 29.7758 24.765C29.7685 24.9043 29.8088 25.0107 29.8968 25.084C29.9922 25.1573 30.1425 25.2197 30.3478 25.271C30.5605 25.315 30.8392 25.3663 31.1838 25.425C31.4772 25.469 31.7668 25.524 32.0528 25.59C32.3388 25.6487 32.5955 25.7367 32.8228 25.854C33.0575 25.9713 33.2408 26.1327 33.3728 26.338C33.5048 26.5433 33.5635 26.811 33.5488 27.141C33.5342 27.757 33.2775 28.241 32.7788 28.593C32.2802 28.9377 31.5138 29.11 30.4798 29.11ZM37.459 29.099C36.821 29.0917 36.26 28.978 35.776 28.758C35.2993 28.5307 34.9326 28.2117 34.676 27.801C34.4193 27.383 34.2983 26.888 34.313 26.316C34.335 25.6633 34.5036 25.0877 34.819 24.589C35.1343 24.083 35.5706 23.6907 36.128 23.412C36.6853 23.1333 37.3343 22.994 38.075 22.994C38.8156 22.994 39.4353 23.137 39.934 23.423C40.4326 23.7017 40.7846 24.1013 40.99 24.622C41.1953 25.1353 41.221 25.744 41.067 26.448H36.139C36.1096 26.7193 36.1536 26.9577 36.271 27.163C36.3883 27.3683 36.5606 27.5297 36.788 27.647C37.0226 27.757 37.294 27.8157 37.602 27.823C37.9906 27.8303 38.3243 27.768 38.603 27.636C38.889 27.4967 39.087 27.3207 39.197 27.108H41.012C40.902 27.5113 40.6856 27.867 40.363 28.175C40.0476 28.4757 39.6443 28.7067 39.153 28.868C38.6616 29.0293 38.097 29.1063 37.459 29.099ZM36.26 25.524L36.139 25.425H39.538L39.428 25.535C39.4573 25.271 39.4133 25.0473 39.296 24.864C39.186 24.6733 39.0173 24.5267 38.79 24.424C38.57 24.3213 38.306 24.27 37.998 24.27C37.69 24.27 37.415 24.3213 37.173 24.424C36.9383 24.5193 36.7403 24.6587 36.579 24.842C36.425 25.0253 36.3186 25.2527 36.26 25.524Z" fill="#1B1B1B"/>
<path d="M12.775 40.11C12.269 40.11 11.8143 40.044 11.411 39.912C11.0076 39.78 10.6666 39.5893 10.388 39.34C10.1093 39.0907 9.90031 38.7973 9.76098 38.46C9.62164 38.1153 9.55931 37.7267 9.57398 37.294C9.59598 36.634 9.76464 36.0547 10.08 35.556C10.3953 35.0573 10.8316 34.6723 11.389 34.401C11.9463 34.1297 12.5916 33.994 13.325 33.994C13.9556 33.994 14.5093 34.093 14.986 34.291C15.4626 34.4817 15.833 34.753 16.097 35.105C16.3683 35.4497 16.504 35.853 16.504 36.315L14.678 36.304C14.6486 36.1133 14.5643 35.952 14.425 35.82C14.293 35.688 14.1243 35.589 13.919 35.523C13.721 35.4497 13.501 35.413 13.259 35.413C12.8923 35.413 12.5733 35.49 12.302 35.644C12.0306 35.7907 11.818 36.0033 11.664 36.282C11.51 36.5533 11.4256 36.8723 11.411 37.239C11.3963 37.5397 11.4513 37.8 11.576 38.02C11.7006 38.2327 11.8803 38.3977 12.115 38.515C12.3496 38.6323 12.621 38.691 12.929 38.691C13.1783 38.691 13.4056 38.658 13.611 38.592C13.8236 38.526 14.007 38.427 14.161 38.295C14.3223 38.163 14.436 38.0017 14.502 37.811L16.317 37.822C16.229 38.2987 16.0236 38.7093 15.701 39.054C15.3856 39.3913 14.9786 39.6517 14.48 39.835C13.9813 40.0183 13.413 40.11 12.775 40.11ZM16.698 40L18.359 31.981H20.196L18.535 40H16.698ZM23.2494 40.11C22.7287 40.11 22.263 40.044 21.8524 39.912C21.449 39.78 21.108 39.593 20.8294 39.351C20.5507 39.1017 20.3417 38.8047 20.2024 38.46C20.063 38.1153 20.0007 37.7267 20.0154 37.294C20.0374 36.6267 20.206 36.0473 20.5214 35.556C20.844 35.0573 21.284 34.6723 21.8414 34.401C22.3987 34.1297 23.044 33.994 23.7774 33.994C24.3054 33.994 24.771 34.06 25.1744 34.192C25.585 34.324 25.9297 34.5147 26.2084 34.764C26.4944 35.006 26.707 35.2993 26.8464 35.644C26.9857 35.9887 27.048 36.3737 27.0334 36.799C27.0114 37.4663 26.839 38.0493 26.5164 38.548C26.201 39.0393 25.761 39.4243 25.1964 39.703C24.639 39.9743 23.99 40.11 23.2494 40.11ZM23.3374 38.691C23.704 38.691 24.023 38.614 24.2944 38.46C24.5657 38.306 24.7784 38.0933 24.9324 37.822C25.0937 37.5507 25.178 37.2317 25.1854 36.865C25.2 36.6377 25.1707 36.436 25.0974 36.26C25.0314 36.0767 24.9324 35.9227 24.8004 35.798C24.6684 35.6733 24.507 35.578 24.3164 35.512C24.133 35.446 23.9277 35.413 23.7004 35.413C23.3337 35.413 23.0147 35.49 22.7434 35.644C22.4794 35.7907 22.2667 36.0033 22.1054 36.282C21.9514 36.5533 21.867 36.8723 21.8524 37.239C21.845 37.459 21.8744 37.6607 21.9404 37.844C22.0137 38.0273 22.1127 38.1813 22.2374 38.306C22.3694 38.4307 22.527 38.526 22.7104 38.592C22.901 38.658 23.11 38.691 23.3374 38.691ZM30.4798 40.11C29.4312 40.11 28.6282 39.9267 28.0708 39.56C27.5208 39.186 27.2642 38.6947 27.3008 38.086H29.1268C29.1122 38.372 29.2332 38.5883 29.4898 38.735C29.7465 38.8743 30.1168 38.944 30.6008 38.944C30.9455 38.944 31.2058 38.8927 31.3818 38.79C31.5578 38.68 31.6532 38.5187 31.6678 38.306C31.6752 38.1593 31.6275 38.0493 31.5248 37.976C31.4295 37.8953 31.2718 37.833 31.0518 37.789C30.8318 37.7377 30.5312 37.6827 30.1498 37.624C29.8272 37.5653 29.5265 37.4993 29.2478 37.426C28.9692 37.3453 28.7272 37.2427 28.5218 37.118C28.3165 36.986 28.1588 36.8247 28.0488 36.634C27.9388 36.4433 27.8875 36.2087 27.8948 35.93C27.9095 35.512 28.0378 35.16 28.2798 34.874C28.5292 34.5807 28.8665 34.3607 29.2918 34.214C29.7245 34.0673 30.2268 33.994 30.7988 33.994C31.4515 33.994 32.0052 34.0747 32.4598 34.236C32.9218 34.39 33.2665 34.61 33.4938 34.896C33.7285 35.182 33.8312 35.5193 33.8018 35.908H32.0308C32.0308 35.7393 31.9758 35.6 31.8658 35.49C31.7632 35.38 31.6165 35.2993 31.4258 35.248C31.2352 35.1893 31.0078 35.16 30.7438 35.16C30.4578 35.16 30.2268 35.2113 30.0508 35.314C29.8748 35.4167 29.7832 35.567 29.7758 35.765C29.7685 35.9043 29.8088 36.0107 29.8968 36.084C29.9922 36.1573 30.1425 36.2197 30.3478 36.271C30.5605 36.315 30.8392 36.3663 31.1838 36.425C31.4772 36.469 31.7668 36.524 32.0528 36.59C32.3388 36.6487 32.5955 36.7367 32.8228 36.854C33.0575 36.9713 33.2408 37.1327 33.3728 37.338C33.5048 37.5433 33.5635 37.811 33.5488 38.141C33.5342 38.757 33.2775 39.241 32.7788 39.593C32.2802 39.9377 31.5138 40.11 30.4798 40.11ZM37.459 40.099C36.821 40.0917 36.26 39.978 35.776 39.758C35.2993 39.5307 34.9326 39.2117 34.676 38.801C34.4193 38.383 34.2983 37.888 34.313 37.316C34.335 36.6633 34.5036 36.0877 34.819 35.589C35.1343 35.083 35.5706 34.6907 36.128 34.412C36.6853 34.1333 37.3343 33.994 38.075 33.994C38.8156 33.994 39.4353 34.137 39.934 34.423C40.4326 34.7017 40.7846 35.1013 40.99 35.622C41.1953 36.1353 41.221 36.744 41.067 37.448H36.139C36.1096 37.7193 36.1536 37.9577 36.271 38.163C36.3883 38.3683 36.5606 38.5297 36.788 38.647C37.0226 38.757 37.294 38.8157 37.602 38.823C37.9906 38.8303 38.3243 38.768 38.603 38.636C38.889 38.4967 39.087 38.3207 39.197 38.108H41.012C40.902 38.5113 40.6856 38.867 40.363 39.175C40.0476 39.4757 39.6443 39.7067 39.153 39.868C38.6616 40.0293 38.097 40.1063 37.459 40.099ZM36.26 36.524L36.139 36.425H39.538L39.428 36.535C39.4573 36.271 39.4133 36.0473 39.296 35.864C39.186 35.6733 39.0173 35.5267 38.79 35.424C38.57 35.3213 38.306 35.27 37.998 35.27C37.69 35.27 37.415 35.3213 37.173 35.424C36.9383 35.5193 36.7403 35.6587 36.579 35.842C36.425 36.0253 36.3186 36.2527 36.26 36.524Z" fill="#1B1B1B"/>
<path d="M12.775 18.11C12.269 18.11 11.8143 18.044 11.411 17.912C11.0076 17.78 10.6666 17.5893 10.388 17.34C10.1093 17.0907 9.90031 16.7973 9.76098 16.46C9.62164 16.1153 9.55931 15.7267 9.57398 15.294C9.59598 14.634 9.76464 14.0547 10.08 13.556C10.3953 13.0573 10.8316 12.6723 11.389 12.401C11.9463 12.1297 12.5916 11.994 13.325 11.994C13.9556 11.994 14.5093 12.093 14.986 12.291C15.4626 12.4817 15.833 12.753 16.097 13.105C16.3683 13.4497 16.504 13.853 16.504 14.315L14.678 14.304C14.6486 14.1133 14.5643 13.952 14.425 13.82C14.293 13.688 14.1243 13.589 13.919 13.523C13.721 13.4497 13.501 13.413 13.259 13.413C12.8923 13.413 12.5733 13.49 12.302 13.644C12.0306 13.7907 11.818 14.0033 11.664 14.282C11.51 14.5533 11.4256 14.8723 11.411 15.239C11.3963 15.5397 11.4513 15.8 11.576 16.02C11.7006 16.2327 11.8803 16.3977 12.115 16.515C12.3496 16.6323 12.621 16.691 12.929 16.691C13.1783 16.691 13.4056 16.658 13.611 16.592C13.8236 16.526 14.007 16.427 14.161 16.295C14.3223 16.163 14.436 16.0017 14.502 15.811L16.317 15.822C16.229 16.2987 16.0236 16.7093 15.701 17.054C15.3856 17.3913 14.9786 17.6517 14.48 17.835C13.9813 18.0183 13.413 18.11 12.775 18.11ZM16.698 18L18.359 9.981H20.196L18.535 18H16.698ZM23.2494 18.11C22.7287 18.11 22.263 18.044 21.8524 17.912C21.449 17.78 21.108 17.593 20.8294 17.351C20.5507 17.1017 20.3417 16.8047 20.2024 16.46C20.063 16.1153 20.0007 15.7267 20.0154 15.294C20.0374 14.6267 20.206 14.0473 20.5214 13.556C20.844 13.0573 21.284 12.6723 21.8414 12.401C22.3987 12.1297 23.044 11.994 23.7774 11.994C24.3054 11.994 24.771 12.06 25.1744 12.192C25.585 12.324 25.9297 12.5147 26.2084 12.764C26.4944 13.006 26.707 13.2993 26.8464 13.644C26.9857 13.9887 27.048 14.3737 27.0334 14.799C27.0114 15.4663 26.839 16.0493 26.5164 16.548C26.201 17.0393 25.761 17.4243 25.1964 17.703C24.639 17.9743 23.99 18.11 23.2494 18.11ZM23.3374 16.691C23.704 16.691 24.023 16.614 24.2944 16.46C24.5657 16.306 24.7784 16.0933 24.9324 15.822C25.0937 15.5507 25.178 15.2317 25.1854 14.865C25.2 14.6377 25.1707 14.436 25.0974 14.26C25.0314 14.0767 24.9324 13.9227 24.8004 13.798C24.6684 13.6733 24.507 13.578 24.3164 13.512C24.133 13.446 23.9277 13.413 23.7004 13.413C23.3337 13.413 23.0147 13.49 22.7434 13.644C22.4794 13.7907 22.2667 14.0033 22.1054 14.282C21.9514 14.5533 21.867 14.8723 21.8524 15.239C21.845 15.459 21.8744 15.6607 21.9404 15.844C22.0137 16.0273 22.1127 16.1813 22.2374 16.306C22.3694 16.4307 22.527 16.526 22.7104 16.592C22.901 16.658 23.11 16.691 23.3374 16.691ZM30.4798 18.11C29.4312 18.11 28.6282 17.9267 28.0708 17.56C27.5208 17.186 27.2642 16.6947 27.3008 16.086H29.1268C29.1122 16.372 29.2332 16.5883 29.4898 16.735C29.7465 16.8743 30.1168 16.944 30.6008 16.944C30.9455 16.944 31.2058 16.8927 31.3818 16.79C31.5578 16.68 31.6532 16.5187 31.6678 16.306C31.6752 16.1593 31.6275 16.0493 31.5248 15.976C31.4295 15.8953 31.2718 15.833 31.0518 15.789C30.8318 15.7377 30.5312 15.6827 30.1498 15.624C29.8272 15.5653 29.5265 15.4993 29.2478 15.426C28.9692 15.3453 28.7272 15.2427 28.5218 15.118C28.3165 14.986 28.1588 14.8247 28.0488 14.634C27.9388 14.4433 27.8875 14.2087 27.8948 13.93C27.9095 13.512 28.0378 13.16 28.2798 12.874C28.5292 12.5807 28.8665 12.3607 29.2918 12.214C29.7245 12.0673 30.2268 11.994 30.7988 11.994C31.4515 11.994 32.0052 12.0747 32.4598 12.236C32.9218 12.39 33.2665 12.61 33.4938 12.896C33.7285 13.182 33.8312 13.5193 33.8018 13.908H32.0308C32.0308 13.7393 31.9758 13.6 31.8658 13.49C31.7632 13.38 31.6165 13.2993 31.4258 13.248C31.2352 13.1893 31.0078 13.16 30.7438 13.16C30.4578 13.16 30.2268 13.2113 30.0508 13.314C29.8748 13.4167 29.7832 13.567 29.7758 13.765C29.7685 13.9043 29.8088 14.0107 29.8968 14.084C29.9922 14.1573 30.1425 14.2197 30.3478 14.271C30.5605 14.315 30.8392 14.3663 31.1838 14.425C31.4772 14.469 31.7668 14.524 32.0528 14.59C32.3388 14.6487 32.5955 14.7367 32.8228 14.854C33.0575 14.9713 33.2408 15.1327 33.3728 15.338C33.5048 15.5433 33.5635 15.811 33.5488 16.141C33.5342 16.757 33.2775 17.241 32.7788 17.593C32.2802 17.9377 31.5138 18.11 30.4798 18.11ZM37.459 18.099C36.821 18.0917 36.26 17.978 35.776 17.758C35.2993 17.5307 34.9326 17.2117 34.676 16.801C34.4193 16.383 34.2983 15.888 34.313 15.316C34.335 14.6633 34.5036 14.0877 34.819 13.589C35.1343 13.083 35.5706 12.6907 36.128 12.412C36.6853 12.1333 37.3343 11.994 38.075 11.994C38.8156 11.994 39.4353 12.137 39.934 12.423C40.4326 12.7017 40.7846 13.1013 40.99 13.622C41.1953 14.1353 41.221 14.744 41.067 15.448H36.139C36.1096 15.7193 36.1536 15.9577 36.271 16.163C36.3883 16.3683 36.5606 16.5297 36.788 16.647C37.0226 16.757 37.294 16.8157 37.602 16.823C37.9906 16.8303 38.3243 16.768 38.603 16.636C38.889 16.4967 39.087 16.3207 39.197 16.108H41.012C40.902 16.5113 40.6856 16.867 40.363 17.175C40.0476 17.4757 39.6443 17.7067 39.153 17.868C38.6616 18.0293 38.097 18.1063 37.459 18.099ZM36.26 14.524L36.139 14.425H39.538L39.428 14.535C39.4573 14.271 39.4133 14.0473 39.296 13.864C39.186 13.6733 39.0173 13.5267 38.79 13.424C38.57 13.3213 38.306 13.27 37.998 13.27C37.69 13.27 37.415 13.3213 37.173 13.424C36.9383 13.5193 36.7403 13.6587 36.579 13.842C36.425 14.0253 36.3186 14.2527 36.26 14.524Z" fill="#1B1B1B"/>
</svg>
