<svg width="50" height="23" viewBox="0 0 50 23" fill="none" xmlns="http://www.w3.org/2000/svg">
<rect width="50" height="23" rx="8" fill="white" fill-opacity="0.3"/>
<path d="M12.775 15.11C12.269 15.11 11.8143 15.044 11.411 14.912C11.0076 14.78 10.6666 14.5893 10.388 14.34C10.1093 14.0907 9.90031 13.7973 9.76098 13.46C9.62164 13.1153 9.55931 12.7267 9.57398 12.294C9.59598 11.634 9.76464 11.0547 10.08 10.556C10.3953 10.0573 10.8316 9.67233 11.389 9.401C11.9463 9.12967 12.5916 8.994 13.325 8.994C13.9556 8.994 14.5093 9.093 14.986 9.291C15.4626 9.48167 15.833 9.753 16.097 10.105C16.3683 10.4497 16.504 10.853 16.504 11.315L14.678 11.304C14.6486 11.1133 14.5643 10.952 14.425 10.82C14.293 10.688 14.1243 10.589 13.919 10.523C13.721 10.4497 13.501 10.413 13.259 10.413C12.8923 10.413 12.5733 10.49 12.302 10.644C12.0306 10.7907 11.818 11.0033 11.664 11.282C11.51 11.5533 11.4256 11.8723 11.411 12.239C11.3963 12.5397 11.4513 12.8 11.576 13.02C11.7006 13.2327 11.8803 13.3977 12.115 13.515C12.3496 13.6323 12.621 13.691 12.929 13.691C13.1783 13.691 13.4056 13.658 13.611 13.592C13.8236 13.526 14.007 13.427 14.161 13.295C14.3223 13.163 14.436 13.0017 14.502 12.811L16.317 12.822C16.229 13.2987 16.0236 13.7093 15.701 14.054C15.3856 14.3913 14.9786 14.6517 14.48 14.835C13.9813 15.0183 13.413 15.11 12.775 15.11ZM16.698 15L18.359 6.981H20.196L18.535 15H16.698ZM23.2494 15.11C22.7287 15.11 22.263 15.044 21.8524 14.912C21.449 14.78 21.108 14.593 20.8294 14.351C20.5507 14.1017 20.3417 13.8047 20.2024 13.46C20.063 13.1153 20.0007 12.7267 20.0154 12.294C20.0374 11.6267 20.206 11.0473 20.5214 10.556C20.844 10.0573 21.284 9.67233 21.8414 9.401C22.3987 9.12967 23.044 8.994 23.7774 8.994C24.3054 8.994 24.771 9.06 25.1744 9.192C25.585 9.324 25.9297 9.51467 26.2084 9.764C26.4944 10.006 26.707 10.2993 26.8464 10.644C26.9857 10.9887 27.048 11.3737 27.0334 11.799C27.0114 12.4663 26.839 13.0493 26.5164 13.548C26.201 14.0393 25.761 14.4243 25.1964 14.703C24.639 14.9743 23.99 15.11 23.2494 15.11ZM23.3374 13.691C23.704 13.691 24.023 13.614 24.2944 13.46C24.5657 13.306 24.7784 13.0933 24.9324 12.822C25.0937 12.5507 25.178 12.2317 25.1854 11.865C25.2 11.6377 25.1707 11.436 25.0974 11.26C25.0314 11.0767 24.9324 10.9227 24.8004 10.798C24.6684 10.6733 24.507 10.578 24.3164 10.512C24.133 10.446 23.9277 10.413 23.7004 10.413C23.3337 10.413 23.0147 10.49 22.7434 10.644C22.4794 10.7907 22.2667 11.0033 22.1054 11.282C21.9514 11.5533 21.867 11.8723 21.8524 12.239C21.845 12.459 21.8744 12.6607 21.9404 12.844C22.0137 13.0273 22.1127 13.1813 22.2374 13.306C22.3694 13.4307 22.527 13.526 22.7104 13.592C22.901 13.658 23.11 13.691 23.3374 13.691ZM30.4798 15.11C29.4312 15.11 28.6282 14.9267 28.0708 14.56C27.5208 14.186 27.2642 13.6947 27.3008 13.086H29.1268C29.1122 13.372 29.2332 13.5883 29.4898 13.735C29.7465 13.8743 30.1168 13.944 30.6008 13.944C30.9455 13.944 31.2058 13.8927 31.3818 13.79C31.5578 13.68 31.6532 13.5187 31.6678 13.306C31.6752 13.1593 31.6275 13.0493 31.5248 12.976C31.4295 12.8953 31.2718 12.833 31.0518 12.789C30.8318 12.7377 30.5312 12.6827 30.1498 12.624C29.8272 12.5653 29.5265 12.4993 29.2478 12.426C28.9692 12.3453 28.7272 12.2427 28.5218 12.118C28.3165 11.986 28.1588 11.8247 28.0488 11.634C27.9388 11.4433 27.8875 11.2087 27.8948 10.93C27.9095 10.512 28.0378 10.16 28.2798 9.874C28.5292 9.58067 28.8665 9.36067 29.2918 9.214C29.7245 9.06733 30.2268 8.994 30.7988 8.994C31.4515 8.994 32.0052 9.07467 32.4598 9.236C32.9218 9.39 33.2665 9.61 33.4938 9.896C33.7285 10.182 33.8312 10.5193 33.8018 10.908H32.0308C32.0308 10.7393 31.9758 10.6 31.8658 10.49C31.7632 10.38 31.6165 10.2993 31.4258 10.248C31.2352 10.1893 31.0078 10.16 30.7438 10.16C30.4578 10.16 30.2268 10.2113 30.0508 10.314C29.8748 10.4167 29.7832 10.567 29.7758 10.765C29.7685 10.9043 29.8088 11.0107 29.8968 11.084C29.9922 11.1573 30.1425 11.2197 30.3478 11.271C30.5605 11.315 30.8392 11.3663 31.1838 11.425C31.4772 11.469 31.7668 11.524 32.0528 11.59C32.3388 11.6487 32.5955 11.7367 32.8228 11.854C33.0575 11.9713 33.2408 12.1327 33.3728 12.338C33.5048 12.5433 33.5635 12.811 33.5488 13.141C33.5342 13.757 33.2775 14.241 32.7788 14.593C32.2802 14.9377 31.5138 15.11 30.4798 15.11ZM37.459 15.099C36.821 15.0917 36.26 14.978 35.776 14.758C35.2993 14.5307 34.9326 14.2117 34.676 13.801C34.4193 13.383 34.2983 12.888 34.313 12.316C34.335 11.6633 34.5036 11.0877 34.819 10.589C35.1343 10.083 35.5706 9.69067 36.128 9.412C36.6853 9.13333 37.3343 8.994 38.075 8.994C38.8156 8.994 39.4353 9.137 39.934 9.423C40.4326 9.70167 40.7846 10.1013 40.99 10.622C41.1953 11.1353 41.221 11.744 41.067 12.448H36.139C36.1096 12.7193 36.1536 12.9577 36.271 13.163C36.3883 13.3683 36.5606 13.5297 36.788 13.647C37.0226 13.757 37.294 13.8157 37.602 13.823C37.9906 13.8303 38.3243 13.768 38.603 13.636C38.889 13.4967 39.087 13.3207 39.197 13.108H41.012C40.902 13.5113 40.6856 13.867 40.363 14.175C40.0476 14.4757 39.6443 14.7067 39.153 14.868C38.6616 15.0293 38.097 15.1063 37.459 15.099ZM36.26 11.524L36.139 11.425H39.538L39.428 11.535C39.4573 11.271 39.4133 11.0473 39.296 10.864C39.186 10.6733 39.0173 10.5267 38.79 10.424C38.57 10.3213 38.306 10.27 37.998 10.27C37.69 10.27 37.415 10.3213 37.173 10.424C36.9383 10.5193 36.7403 10.6587 36.579 10.842C36.425 11.0253 36.3186 11.2527 36.26 11.524Z" fill="#F9F5E7"/>
</svg>
