<svg width="30" height="48" viewBox="0 0 30 48" fill="none" xmlns="http://www.w3.org/2000/svg">
    <link
        xmlns="http://www.w3.org/1999/xhtml"
        rel="stylesheet"
        href="../styles/style.css"
        type="text/css" />

    <g id="mode-switch">
        <path id="mode-switch" d="M14.75 47.9595C13 47.9595 11.5277 47.3621 10.333 46.1675C9.139 44.9735 8.542 43.5015 8.542 41.7515H2.625C1.93033 41.7515 1.31933 41.4875 0.792 40.9595C0.264 40.4315 0 39.8205 0 39.1265C0 35.0705 1.27767 31.6121 3.833 28.7515C6.389 25.8901 9.59733 24.2928 13.458 23.9595V0H16.083V23.9595C19.9163 24.3208 23.111 25.9251 25.667 28.7725C28.2223 31.6191 29.5 35.0705 29.5 39.1265C29.5 39.8205 29.236 40.4315 28.708 40.9595C28.1807 41.4875 27.5697 41.7515 26.875 41.7515H20.958C20.958 43.5015 20.361 44.9735 19.167 46.1675C17.9723 47.3621 16.5 47.9595 14.75 47.9595ZM2.625 39.1265H26.875C26.875 35.6265 25.6943 32.6611 23.333 30.2305C20.9723 27.7998 18.1113 26.5845 14.75 26.5845C11.3887 26.5845 8.52767 27.7998 6.167 30.2305C3.80567 32.6611 2.625 35.6265 2.625 39.1265ZM14.75 45.3345C15.75 45.3345 16.5973 44.9871 17.292 44.2925C17.986 43.5985 18.333 42.7515 18.333 41.7515H11.167C11.167 42.7515 11.514 43.5985 12.208 44.2925C12.9027 44.9871 13.75 45.3345 14.75 45.3345Z" fill= "orangered" />
    </g>
</svg>