<svg width="16" height="16" viewBox="0 0 16 16" fill="none" xmlns="http://www.w3.org/2000/svg">
<path d="M16 8C16 12.4183 12.4183 16 8 16C3.58172 16 0 12.4183 0 8C0 3.58172 3.58172 0 8 0C12.4183 0 16 3.58172 16 8Z" fill="#191970"/>
<path d="M3 5.70222C3 4.20982 4.20983 3 5.70222 3C7.19462 3 8.40444 4.20983 8.40444 5.70222V10.2533C8.40444 11.7457 7.19462 12.9556 5.70222 12.9556C4.20983 12.9556 3 11.7457 3 10.2533V5.70222Z" fill="#FF4500"/>
<path d="M8.90625 3.88889C8.90625 3.39797 9.30422 3 9.79514 3C10.2861 3 10.684 3.39797 10.684 3.88889V12.0667C10.684 12.5576 10.2861 12.9556 9.79514 12.9556C9.30422 12.9556 8.90625 12.5576 8.90625 12.0667V3.88889Z" fill="#FF4500"/>
<path d="M11.1797 8.36887C11.1797 7.87795 11.5777 7.47998 12.0686 7.47998C12.5595 7.47998 12.9575 7.87795 12.9575 8.36887V12.0666C12.9575 12.5576 12.5595 12.9555 12.0686 12.9555C11.5777 12.9555 11.1797 12.5576 11.1797 12.0666V8.36887Z" fill="#FF4500"/>
<path d="M11.1797 3.88889C11.1797 3.39797 11.5777 3 12.0686 3C12.5595 3 12.9575 3.39797 12.9575 3.88889V5.88C12.9575 6.37092 12.5595 6.76889 12.0686 6.76889C11.5777 6.76889 11.1797 6.37092 11.1797 5.88V3.88889Z" fill="#FF4500"/>
<path d="M3.92969 5.70209C3.92969 4.72025 4.72563 3.92432 5.70747 3.92432C6.68931 3.92432 7.48524 4.72025 7.48524 5.70209C7.48524 6.68393 6.68931 7.47987 5.70747 7.47987C4.72563 7.47987 3.92969 6.68393 3.92969 5.70209Z" fill="#191970"/>
</svg>
